<?xml version="1.0" encoding="UTF-8"?>
<!DOCTYPE svg PUBLIC "-//W3C//DTD SVG 1.1//EN" "http://www.w3.org/Graphics/SVG/1.1/DTD/svg11.dtd">
<!-- Creator: CorelDRAW X7 -->
<svg xmlns="http://www.w3.org/2000/svg" xml:space="preserve" width="1280px" height="260px" version="1.1" style="shape-rendering:geometricPrecision; text-rendering:geometricPrecision; image-rendering:optimizeQuality; fill-rule:evenodd; clip-rule:evenodd"
viewBox="0 0 1280 260"
 xmlns:xlink="http://www.w3.org/1999/xlink">
 <defs>
  <style type="text/css">
   <![CDATA[
    .fil1 {fill:black}
    .fil2 {fill:#3C5A96}
    .fil4 {fill:#BE0000}
    .fil0 {fill:black;fill-rule:nonzero}
    .fil3 {fill:#3C5A96;fill-rule:nonzero}
    .fil5 {fill:#BE0000;fill-rule:nonzero}
   ]]>
  </style>
 </defs>
 <g id="Слой_x0020_1">
  <metadata id="CorelCorpID_0Corel-Layer"/>
  <g id="_686816088">
   <path class="fil0" d="M642 5l13 0c3,0 5,1 7,2 2,2 2,3 2,5 0,1 0,2 -1,3 0,2 -1,2 -2,3 2,0 3,1 4,3 1,1 2,3 2,4 0,3 -1,5 -2,6 -2,2 -5,3 -9,3l-14 0 0 -29zm7 5l0 6 4 0c2,0 2,0 3,-1 1,0 1,-1 1,-2 0,-1 0,-1 -1,-2 -1,-1 -2,-1 -3,-1l-4 0zm0 12l0 7 5 0c2,0 3,-1 4,-1 1,-1 1,-2 1,-3 0,-1 0,-2 -1,-2 -1,-1 -2,-1 -3,-1l-6 0zm58 -17l13 29 -8 0 -2 -6 -13 0 -2 6 -8 0 12 -29 8 0zm1 18l-5 -11 -4 11 9 0zm33 -18l13 0c3,0 6,1 7,2 2,2 3,4 3,6 0,3 -2,6 -5,7 1,1 2,2 2,3 1,0 2,2 3,4 1,2 2,5 3,7l-8 0c-1,-3 -3,-5 -4,-8 -1,-3 -3,-4 -4,-4l-2 0 0 12 -8 0 0 -29zm8 5l0 7 3 0c2,0 2,0 3,-1 1,-1 1,-1 1,-3 0,-2 -1,-3 -4,-3l-3 0zm39 -5l13 0c3,0 5,1 7,2 2,2 2,3 2,5 0,1 0,2 -1,3 0,2 -1,2 -2,3 2,0 3,1 4,3 1,1 2,3 2,4 0,3 -1,5 -2,6 -2,2 -5,3 -9,3l-14 0 0 -29zm7 5l0 6 4 0c2,0 2,0 3,-1 1,0 1,-1 1,-2 0,-1 0,-1 -1,-2 -1,-1 -2,-1 -3,-1l-4 0zm0 12l0 7 5 0c2,0 3,-1 4,-1 1,-1 1,-2 1,-3 0,-1 0,-2 -1,-2 -1,-1 -2,-1 -3,-1l-6 0zm63 7l0 5 -22 0 0 -29 21 0 0 5 -14 0 0 6 14 0 0 6 -14 0 0 7 15 0zm23 -24l13 0c3,0 5,1 7,2 2,2 3,4 3,6 0,3 -2,6 -5,7 1,1 1,2 2,3 1,0 1,2 2,4 1,2 3,5 4,7l-8 0c-2,-3 -3,-5 -4,-8 -1,-3 -3,-4 -5,-4l-2 0 0 12 -7 0 0 -29zm7 5l0 7 4 0c1,0 2,0 3,-1 1,-1 1,-1 1,-3 0,-2 -1,-3 -4,-3l-4 0zm60 -3l0 5c-3,-1 -4,-1 -6,-2 -1,0 -2,0 -4,0 -1,0 -2,0 -3,0 -1,1 -1,1 -1,2 0,1 1,2 4,3 4,2 6,3 7,3 3,2 4,5 4,8 0,2 -1,4 -3,6 -2,2 -5,2 -8,2 -3,0 -5,0 -6,0 -2,-1 -3,-1 -5,-2l0 -7c2,2 4,3 5,3 2,1 4,1 5,1 3,0 4,-1 4,-3 0,-1 -1,-2 -3,-3 -4,-1 -7,-2 -8,-3 -2,-2 -3,-4 -3,-7 0,-3 1,-5 3,-6 2,-2 4,-3 8,-3 3,0 6,1 10,3zm53 -2l0 29 -7 0 0 -12 -15 0 0 12 -7 0 0 -29 7 0 0 12 15 0 0 -12 7 0zm56 14c0,4 -1,8 -4,11 -3,3 -7,4 -12,4 -5,0 -9,-1 -13,-4 -3,-3 -4,-7 -4,-11 0,-3 1,-7 4,-10 3,-3 8,-5 13,-5 5,0 9,2 12,5 3,3 4,7 4,10zm-7 0c0,-2 -1,-4 -3,-6 -1,-2 -3,-3 -6,-3 -3,0 -5,1 -7,3 -2,2 -3,4 -3,6 0,3 1,5 3,7 2,1 4,2 7,2 3,0 5,-1 6,-2 2,-2 3,-4 3,-7zm31 -14l13 0c3,0 5,1 7,3 2,1 3,3 3,5 0,3 -1,5 -3,6 -1,2 -4,3 -7,3l-6 0 0 12 -7 0 0 -29zm7 5l0 7 4 0c1,0 2,0 3,-1 1,0 1,-1 1,-2 0,-2 0,-3 -1,-3 -1,-1 -2,-1 -4,-1l-3 0z"/>
   <polygon class="fil1" points="470,66 1277,66 1277,71 470,71 "/>
   <path class="fil1" d="M470 189l361 0c0,1 1,3 2,4l0 0c0,0 0,1 1,1l-364 0 0 -5zm389 0l418 0 0 5 -420 0c0,-1 1,-2 1,-4 1,0 1,-1 1,-1z"/>
   <g>
    <g>
     <path class="fil0" d="M860 132c-8,-1 -14,1 -17,3l0 -1c0,0 1,0 1,0 1,-1 1,-2 2,-2 0,-1 0,-2 -1,-3 0,0 0,0 -1,-1 4,-1 8,-2 13,-2 1,0 2,0 3,0 1,0 3,1 3,3 0,1 -2,3 -3,3z"/>
     <path class="fil0" d="M789 137c-2,0 -3,-1 -3,-2l0 -12 39 0 6 7 6 0c0,0 1,1 1,1 -1,1 -2,2 -3,3 -1,1 -2,2 -2,3l0 0 -44 0z"/>
     <path class="fil0" d="M843 129c1,0 2,1 2,2 1,1 1,3 0,4 -1,4 -3,8 -3,13 0,3 0,6 0,9 0,1 1,3 1,4 0,2 0,3 1,5 0,1 1,3 1,4 1,1 1,3 2,4 0,1 1,3 2,4 1,2 1,3 2,4l0 0 0 0 0 0 0 0 0 0 0 0 0 0c1,2 2,4 1,6 0,2 -2,4 -3,5 -2,1 -4,1 -6,0 -2,0 -4,-1 -5,-3 -3,-7 -5,-14 -7,-21 0,-4 -1,-8 -1,-12 0,-1 0,-3 0,-4 1,-9 3,-15 7,-22 1,-1 1,-2 3,-2 1,-1 2,-1 3,0z"/>
    </g>
    <g>
     <path class="fil0" d="M1091 87l2 0 7 0 2 0 8 0 2 0 4 0 0 2 -4 5 0 42c0,12 -4,22 -11,28 -7,7 -18,10 -32,10 -13,0 -24,-3 -32,-10 -7,-6 -11,-16 -11,-28l0 -42 -4 -5 0 -2 4 0 2 0 8 0 2 0 8 0 2 0 4 0 0 2 -4 5 0 42c0,6 2,11 5,15 4,4 10,5 16,5 7,0 12,-2 16,-5 4,-4 6,-9 6,-16l0 -41 -5 -5 0 -2 5 0z"/>
     <polygon class="fil0" points="974,94 974,166 979,171 979,173 974,173 972,173 965,173 963,173 956,173 955,173 949,173 949,171 952,168 909,118 909,166 913,171 913,173 909,173 907,173 899,173 897,173 889,173 887,173 883,173 883,171 887,166 887,94 883,89 883,87 887,87 889,87 897,87 899,87 907,87 913,87 913,89 911,92 953,140 953,94 949,89 949,87 953,87 955,87 963,87 965,87 972,87 974,87 979,87 979,89 "/>
     <path class="fil0" d="M687 93l32 71 0 0 6 7 0 2 -2 0 -4 0 -8 0 -3 0 -8 0 -6 0 0 -2 3 -4 -4 -11 -39 0 -4 11 4 4 0 2 -6 0 -8 0 -3 0 -8 0 -4 0 -2 0 0 -2 6 -7 28 -71 -3 -4 0 -2 6 0 8 0 9 0 8 0 6 0 0 2 -4 4zm-1 48l-13 -33 -13 33 26 0z"/>
     <polygon class="fil0" points="536,119 559,92 557,89 557,87 563,87 564,87 571,87 572,87 580,87 582,87 586,87 586,89 582,94 582,166 586,171 586,173 582,173 580,173 572,173 571,173 563,173 561,173 557,173 557,171 561,166 561,119 538,146 534,146 511,119 511,166 515,171 515,173 511,173 509,173 501,173 500,173 492,173 490,173 486,173 486,171 490,166 490,94 486,89 486,87 490,87 492,87 500,87 501,87 508,87 509,87 515,87 515,89 513,92 "/>
     <path class="fil1" d="M828 169c-9,3 -18,5 -27,5 -16,0 -28,-4 -37,-12 -9,-9 -14,-19 -14,-32 0,-12 5,-23 15,-31 9,-9 22,-13 37,-13 10,0 18,1 26,4l3 -3 2 0 0 6 0 8 0 11c-10,-5 -20,-8 -29,-8 -9,0 -17,2 -23,7 -6,5 -8,11 -8,19 0,8 2,14 8,19 6,5 13,7 22,7 5,0 9,0 13,-1 4,-2 10,-4 18,-8 -3,6 -5,11 -6,18 0,1 0,3 0,4z"/>
     <polygon class="fil0" points="1210,119 1234,92 1231,89 1231,87 1237,87 1238,87 1245,87 1247,87 1255,87 1257,87 1261,87 1261,89 1257,94 1257,166 1261,171 1261,173 1257,173 1255,173 1247,173 1245,173 1237,173 1235,173 1231,173 1231,171 1235,166 1235,119 1212,146 1209,146 1186,119 1186,166 1190,171 1190,173 1186,173 1184,173 1176,173 1174,173 1166,173 1164,173 1160,173 1160,171 1164,166 1164,94 1160,89 1160,87 1164,87 1166,87 1174,87 1176,87 1183,87 1184,87 1190,87 1190,89 1187,92 "/>
    </g>
   </g>
   <g>
    <polygon class="fil2" points="406,184 344,256 329,238 406,148 "/>
    <polygon class="fil2" points="406,41 236,238 205,238 406,5 437,5 "/>
    <polygon class="fil2" points="127,220 96,256 65,256 127,184 "/>
    <polygon class="fil2" points="220,112 158,184 143,166 205,94 "/>
    <polygon class="fil2" points="158,41 34,184 34,148 143,23 "/>
    <polygon class="fil2" points="65,5 34,41 3,5 34,5 "/>
    <path class="fil3" d="M572 228l0 6c-2,-1 -4,-2 -6,-2 -1,-1 -2,-1 -4,-1 -1,0 -2,0 -3,1 0,0 -1,1 -1,1 0,1 1,3 4,4 4,1 6,2 7,3 3,1 4,4 4,7 0,3 -1,5 -3,6 -2,2 -5,3 -8,3 -2,0 -5,-1 -6,-1 -1,-1 -3,-1 -5,-2l0 -7c2,2 4,3 6,3 1,1 3,1 4,1 3,0 4,-1 4,-2 0,-2 -1,-3 -3,-4 -4,-1 -7,-2 -8,-3 -2,-2 -3,-4 -3,-7 0,-3 1,-5 3,-6 2,-2 4,-2 8,-2 3,0 6,0 10,2zm53 -2l0 29 -7 0 0 -12 -15 0 0 12 -7 0 0 -29 7 0 0 12 15 0 0 -12 7 0zm41 0l13 29 -7 0 -3 -6 -13 0 -2 6 -8 0 12 -29 8 0zm1 18l-5 -11 -4 11 9 0zm61 -18l-13 30 -3 0 -15 -30 8 0 8 17 7 -17 8 0zm43 24l0 5 -22 0 0 -29 22 0 0 5 -14 0 0 6 13 0 0 6 -13 0 0 7 14 0zm96 -4l0 7c-2,1 -4,1 -6,2 -2,0 -4,1 -6,1 -5,0 -9,-2 -13,-5 -2,-3 -4,-6 -4,-10 0,-4 2,-8 5,-11 3,-3 7,-4 13,-4 4,0 7,0 10,2l0 7c-1,-1 -3,-2 -5,-3 -1,0 -3,0 -5,0 -3,0 -5,1 -7,2 -2,2 -3,4 -3,7 0,2 1,4 3,6 2,2 4,3 7,3 2,0 3,-1 5,-1 1,-1 3,-2 6,-3zm45 -20l7 0 0 17c0,4 -1,8 -4,10 -2,2 -6,3 -10,3 -5,0 -8,-1 -11,-3 -3,-3 -4,-6 -4,-10l0 -17 7 0 0 17c0,2 1,4 2,5 2,1 3,2 6,2 2,0 3,-1 5,-2 1,-1 2,-3 2,-6l0 -16zm58 0l0 5 -11 0 0 24 -7 0 0 -24 -11 0 0 -5 29 0zm93 0l0 5 -10 0 0 24 -7 0 0 -24 -11 0 0 -5 28 0zm23 0l13 0c3,0 5,1 7,3 2,1 2,3 2,5 0,4 -1,6 -5,8 1,0 2,1 3,2 0,1 1,2 2,4 1,3 2,5 3,7l-8 0c-1,-3 -2,-5 -3,-8 -2,-2 -3,-4 -5,-4l-2 0 0 12 -7 0 0 -29zm7 5l0 7 4 0c1,0 2,0 3,-1 0,0 1,-1 1,-2 0,-3 -2,-4 -4,-4l-4 0zm47 -5l0 29 -7 0 0 -29 7 0zm40 11l10 -11 6 0 0 29 -7 0 0 -18 -8 9 -1 0 -8 -9 0 18 -7 0 0 -29 6 0 9 11z"/>
   </g>
   <g>
    <polygon class="fil4" points="406,220 375,256 406,256 437,256 "/>
    <polygon class="fil4" points="406,112 406,76 313,184 313,220 "/>
    <polygon class="fil4" points="189,76 127,148 34,256 3,256 34,220 174,59 "/>
    <polygon class="fil4" points="127,5 34,112 34,76 96,5 "/>
    <polygon class="fil4" points="375,5 189,220 174,202 344,5 "/>
    <path class="fil5" d="M805 234c1,0 3,1 4,2 1,1 2,3 2,5 0,1 -1,3 -2,4 -1,1 -3,2 -4,2 -2,0 -3,-1 -5,-2 -1,-1 -1,-3 -1,-4 0,-2 0,-4 1,-5 2,-1 3,-2 5,-2zm197 0c2,0 4,1 5,2 1,1 2,3 2,5 0,1 -1,3 -2,4 -1,1 -3,2 -5,2 -1,0 -3,-1 -4,-2 -1,-1 -2,-3 -2,-4 0,-2 1,-4 2,-5 1,-1 3,-2 4,-2z"/>
   </g>
  </g>
 </g>
</svg>
