<?xml version="1.0" encoding="utf-8"?>
<!-- Generator: Adobe Illustrator 17.1.0, SVG Export Plug-In . SVG Version: 6.00 Build 0)  -->
<!DOCTYPE svg PUBLIC "-//W3C//DTD SVG 1.1//EN" "http://www.w3.org/Graphics/SVG/1.1/DTD/svg11.dtd">
<svg version="1.1" id="Layer_1" xmlns="http://www.w3.org/2000/svg" xmlns:xlink="http://www.w3.org/1999/xlink" x="0px" y="0px"
	 viewBox="0 0 1280 260" enable-background="new 0 0 1280 260" xml:space="preserve">
<g id="Слой_x0020_1">
	<g id="_686816088">
		<path fill="#FFFFFF" d="M642,5h13c3,0,5,1,7,2c2,2,2,3,2,5c0,1,0,2-1,3c0,2-1,2-2,3c2,0,3,1,4,3c1,1,2,3,2,4c0,3-1,5-2,6
			c-2,2-5,3-9,3h-14V5z M649,10v6h4c2,0,2,0,3-1c1,0,1-1,1-2s0-1-1-2s-2-1-3-1H649z M649,22v7h5c2,0,3-1,4-1c1-1,1-2,1-3s0-2-1-2
			c-1-1-2-1-3-1H649z M707,5l13,29h-8l-2-6h-13l-2,6h-8l12-29H707z M708,23l-5-11l-4,11H708z M741,5h13c3,0,6,1,7,2c2,2,3,4,3,6
			c0,3-2,6-5,7c1,1,2,2,2,3c1,0,2,2,3,4s2,5,3,7h-8c-1-3-3-5-4-8s-3-4-4-4h-2v12h-8V5z M749,10v7h3c2,0,2,0,3-1s1-1,1-3s-1-3-4-3
			H749z M788,5h13c3,0,5,1,7,2c2,2,2,3,2,5c0,1,0,2-1,3c0,2-1,2-2,3c2,0,3,1,4,3c1,1,2,3,2,4c0,3-1,5-2,6c-2,2-5,3-9,3h-14V5z
			 M795,10v6h4c2,0,2,0,3-1c1,0,1-1,1-2s0-1-1-2s-2-1-3-1H795z M795,22v7h5c2,0,3-1,4-1c1-1,1-2,1-3s0-2-1-2c-1-1-2-1-3-1H795z
			 M858,29v5h-22V5h21v5h-14v6h14v6h-14v7H858z M881,5h13c3,0,5,1,7,2c2,2,3,4,3,6c0,3-2,6-5,7c1,1,1,2,2,3c1,0,1,2,2,4s3,5,4,7h-8
			c-2-3-3-5-4-8s-3-4-5-4h-2v12h-7V5z M888,10v7h4c1,0,2,0,3-1s1-1,1-3s-1-3-4-3H888z M948,7v5c-3-1-4-1-6-2c-1,0-2,0-4,0
			c-1,0-2,0-3,0c-1,1-1,1-1,2s1,2,4,3c4,2,6,3,7,3c3,2,4,5,4,8c0,2-1,4-3,6s-5,2-8,2s-5,0-6,0c-2-1-3-1-5-2v-7c2,2,4,3,5,3
			c2,1,4,1,5,1c3,0,4-1,4-3c0-1-1-2-3-3c-4-1-7-2-8-3c-2-2-3-4-3-7s1-5,3-6c2-2,4-3,8-3C941,4,944,5,948,7z M1001,5v29h-7V22h-15v12
			h-7V5h7v12h15V5H1001z M1057,19c0,4-1,8-4,11s-7,4-12,4s-9-1-13-4c-3-3-4-7-4-11c0-3,1-7,4-10s8-5,13-5s9,2,12,5S1057,16,1057,19z
			 M1050,19c0-2-1-4-3-6c-1-2-3-3-6-3s-5,1-7,3s-3,4-3,6c0,3,1,5,3,7c2,1,4,2,7,2s5-1,6-2C1049,24,1050,22,1050,19z M1081,5h13
			c3,0,5,1,7,3c2,1,3,3,3,5c0,3-1,5-3,6c-1,2-4,3-7,3h-6v12h-7V5z M1088,10v7h4c1,0,2,0,3-1c1,0,1-1,1-2c0-2,0-3-1-3c-1-1-2-1-4-1
			H1088z"/>
		<polygon fill="#FFFFFF" points="470,66 1277,66 1277,71 470,71 		"/>
		<path fill="#FFFFFF" d="M470,189h361c0,1,1,3,2,4l0,0c0,0,0,1,1,1H470V189z M859,189h418v5H857c0-1,1-2,1-4
			C859,190,859,189,859,189z"/>
		<g>
			<g>
				<path fill="#FFFFFF" d="M860,132c-8-1-14,1-17,3v-1h1c1-1,1-2,2-2c0-1,0-2-1-3c0,0,0,0-1-1c4-1,8-2,13-2c1,0,2,0,3,0s3,1,3,3
					C863,130,861,132,860,132z"/>
				<path fill="#FFFFFF" d="M789,137c-2,0-3-1-3-2v-12h39l6,7h6l1,1c-1,1-2,2-3,3s-2,2-2,3l0,0H789z"/>
				<path fill="#FFFFFF" d="M843,129c1,0,2,1,2,2c1,1,1,3,0,4c-1,4-3,8-3,13c0,3,0,6,0,9c0,1,1,3,1,4c0,2,0,3,1,5c0,1,1,3,1,4
					c1,1,1,3,2,4c0,1,1,3,2,4c1,2,1,3,2,4l0,0l0,0l0,0l0,0l0,0l0,0l0,0c1,2,2,4,1,6c0,2-2,4-3,5c-2,1-4,1-6,0c-2,0-4-1-5-3
					c-3-7-5-14-7-21c0-4-1-8-1-12c0-1,0-3,0-4c1-9,3-15,7-22c1-1,1-2,3-2C841,128,842,128,843,129z"/>
			</g>
			<g>
				<path fill="#FFFFFF" d="M1091,87h2h7h2h8h2h4v2l-4,5v42c0,12-4,22-11,28c-7,7-18,10-32,10c-13,0-24-3-32-10c-7-6-11-16-11-28V94
					l-4-5v-2h4h2h8h2h8h2h4v2l-4,5v42c0,6,2,11,5,15c4,4,10,5,16,5c7,0,12-2,16-5c4-4,6-9,6-16V94l-5-5v-2H1091z"/>
				<polygon fill="#FFFFFF" points="974,94 974,166 979,171 979,173 974,173 972,173 965,173 963,173 956,173 955,173 949,173 
					949,171 952,168 909,118 909,166 913,171 913,173 909,173 907,173 899,173 897,173 889,173 887,173 883,173 883,171 887,166 
					887,94 883,89 883,87 887,87 889,87 897,87 899,87 907,87 913,87 913,89 911,92 953,140 953,94 949,89 949,87 953,87 955,87 
					963,87 965,87 972,87 974,87 979,87 979,89 				"/>
				<path fill="#FFFFFF" d="M687,93l32,71l0,0l6,7v2h-2h-4h-8h-3h-8h-6v-2l3-4l-4-11h-39l-4,11l4,4v2h-6h-8h-3h-8h-4h-2v-2l6-7
					l28-71l-3-4v-2h6h8h9h8h6v2L687,93z M686,141l-13-33l-13,33H686z"/>
				<polygon fill="#FFFFFF" points="536,119 559,92 557,89 557,87 563,87 564,87 571,87 572,87 580,87 582,87 586,87 586,89 582,94 
					582,166 586,171 586,173 582,173 580,173 572,173 571,173 563,173 561,173 557,173 557,171 561,166 561,119 538,146 534,146 
					511,119 511,166 515,171 515,173 511,173 509,173 501,173 500,173 492,173 490,173 486,173 486,171 490,166 490,94 486,89 
					486,87 490,87 492,87 500,87 501,87 508,87 509,87 515,87 515,89 513,92 				"/>
				<path fill="#FFFFFF" d="M828,169c-9,3-18,5-27,5c-16,0-28-4-37-12c-9-9-14-19-14-32c0-12,5-23,15-31c9-9,22-13,37-13
					c10,0,18,1,26,4l3-3h2v6v8v11c-10-5-20-8-29-8s-17,2-23,7s-8,11-8,19s2,14,8,19s13,7,22,7c5,0,9,0,13-1c4-2,10-4,18-8
					c-3,6-5,11-6,18C828,166,828,168,828,169z"/>
				<polygon fill="#FFFFFF" points="1210,119 1234,92 1231,89 1231,87 1237,87 1238,87 1245,87 1247,87 1255,87 1257,87 1261,87 
					1261,89 1257,94 1257,166 1261,171 1261,173 1257,173 1255,173 1247,173 1245,173 1237,173 1235,173 1231,173 1231,171 
					1235,166 1235,119 1212,146 1209,146 1186,119 1186,166 1190,171 1190,173 1186,173 1184,173 1176,173 1174,173 1166,173 
					1164,173 1160,173 1160,171 1164,166 1164,94 1160,89 1160,87 1164,87 1166,87 1174,87 1176,87 1183,87 1184,87 1190,87 
					1190,89 1187,92 				"/>
			</g>
		</g>
		<g>
			<polygon fill="#FFFFFF" points="406,184 344,256 329,238 406,148 			"/>
			<polygon fill="#FFFFFF" points="406,41 236,238 205,238 406,5 437,5 			"/>
			<polygon fill="#FFFFFF" points="127,220 96,256 65,256 127,184 			"/>
			<polygon fill="#FFFFFF" points="220,112 158,184 143,166 205,94 			"/>
			<polygon fill="#FFFFFF" points="158,41 34,184 34,148 143,23 			"/>
			<polygon fill="#FFFFFF" points="65,5 34,41 3,5 34,5 			"/>
			<path fill="#FFFFFF" d="M572,228v6c-2-1-4-2-6-2c-1-1-2-1-4-1c-1,0-2,0-3,1l-1,1c0,1,1,3,4,4c4,1,6,2,7,3c3,1,4,4,4,7s-1,5-3,6
				c-2,2-5,3-8,3c-2,0-5-1-6-1c-1-1-3-1-5-2v-7c2,2,4,3,6,3c1,1,3,1,4,1c3,0,4-1,4-2c0-2-1-3-3-4c-4-1-7-2-8-3c-2-2-3-4-3-7s1-5,3-6
				c2-2,4-2,8-2C565,226,568,226,572,228z M625,226v29h-7v-12h-15v12h-7v-29h7v12h15v-12H625z M666,226l13,29h-7l-3-6h-13l-2,6h-8
				l12-29H666z M667,244l-5-11l-4,11H667z M728,226l-13,30h-3l-15-30h8l8,17l7-17H728z M771,250v5h-22v-29h22v5h-14v6h13v6h-13v7
				H771z M867,246v7c-2,1-4,1-6,2c-2,0-4,1-6,1c-5,0-9-2-13-5c-2-3-4-6-4-10s2-8,5-11s7-4,13-4c4,0,7,0,10,2v7c-1-1-3-2-5-3
				c-1,0-3,0-5,0c-3,0-5,1-7,2c-2,2-3,4-3,7c0,2,1,4,3,6s4,3,7,3c2,0,3-1,5-1C862,248,864,247,867,246z M912,226h7v17c0,4-1,8-4,10
				c-2,2-6,3-10,3c-5,0-8-1-11-3c-3-3-4-6-4-10v-17h7v17c0,2,1,4,2,5c2,1,3,2,6,2c2,0,3-1,5-2c1-1,2-3,2-6V226z M970,226v5h-11v24
				h-7v-24h-11v-5H970z M1063,226v5h-10v24h-7v-24h-11v-5H1063z M1086,226h13c3,0,5,1,7,3c2,1,2,3,2,5c0,4-1,6-5,8c1,0,2,1,3,2
				c0,1,1,2,2,4c1,3,2,5,3,7h-8c-1-3-2-5-3-8c-2-2-3-4-5-4h-2v12h-7V226z M1093,231v7h4c1,0,2,0,3-1c0,0,1-1,1-2c0-3-2-4-4-4H1093z
				 M1140,226v29h-7v-29H1140z M1180,237l10-11h6v29h-7v-18l-8,9h-1l-8-9v18h-7v-29h6L1180,237z"/>
		</g>
		<g>
			<polygon fill="#FFFFFF" points="406,220 375,256 406,256 437,256 			"/>
			<polygon fill="#FFFFFF" points="406,112 406,76 313,184 313,220 			"/>
			<polygon fill="#FFFFFF" points="189,76 127,148 34,256 3,256 34,220 174,59 			"/>
			<polygon fill="#FFFFFF" points="127,5 34,112 34,76 96,5 			"/>
			<polygon fill="#FFFFFF" points="375,5 189,220 174,202 344,5 			"/>
			<path fill="#FFFFFF" d="M805,234c1,0,3,1,4,2s2,3,2,5c0,1-1,3-2,4s-3,2-4,2c-2,0-3-1-5-2c-1-1-1-3-1-4c0-2,0-4,1-5
				C802,235,803,234,805,234z M1002,234c2,0,4,1,5,2s2,3,2,5c0,1-1,3-2,4s-3,2-5,2c-1,0-3-1-4-2s-2-3-2-4c0-2,1-4,2-5
				S1001,234,1002,234z"/>
		</g>
	</g>
</g>
</svg>
