<?xml version="1.0" encoding="UTF-8"?>
<!DOCTYPE svg PUBLIC "-//W3C//DTD SVG 1.1//EN" "http://www.w3.org/Graphics/SVG/1.1/DTD/svg11.dtd">
<!-- Creator: CorelDRAW X7 -->
<svg xmlns="http://www.w3.org/2000/svg" xml:space="preserve" width="810px" height="540px" version="1.1" style="shape-rendering:geometricPrecision; text-rendering:geometricPrecision; image-rendering:optimizeQuality; fill-rule:evenodd; clip-rule:evenodd"
viewBox="0 0 810 540"
 xmlns:xlink="http://www.w3.org/1999/xlink">
 <defs>
  <style type="text/css">
   <![CDATA[
    .fil1 {fill:black}
    .fil2 {fill:#3C5A96}
    .fil3 {fill:#BE0000}
    .fil0 {fill:black;fill-rule:nonzero}
    .fil4 {fill:#BE0000;fill-rule:nonzero}
   ]]>
  </style>
 </defs>
 <g id="Слой_x0020_1">
  <metadata id="CorelCorpID_0Corel-Layer"/>
  <g id="_718934720">
   <path class="fil0" d="M174 4l13 0c3,0 6,0 7,2 2,1 3,3 3,5 0,1 -1,2 -1,3 -1,1 -2,2 -3,3 2,0 3,1 4,3 1,1 2,2 2,4 0,2 -1,4 -2,6 -2,2 -5,3 -8,3l-15 0 0 -29zm8 5l0 6 3 0c2,0 3,0 3,-1 1,0 1,-1 1,-2 0,-1 0,-2 -1,-2 0,-1 -1,-1 -3,-1l-3 0zm0 12l0 6 4 0c2,0 3,0 4,0 1,-1 1,-2 1,-3 0,-1 0,-2 -1,-3 -1,0 -2,0 -3,0l-5 0zm57 -17l13 29 -8 0 -2 -6 -13 0 -2 6 -8 0 12 -29 8 0zm1 18l-5 -11 -4 11 9 0zm33 -18l13 0c3,0 6,0 7,2 2,2 3,4 3,6 0,3 -2,6 -5,7 1,1 2,1 2,2 1,1 2,3 3,5 1,2 2,4 3,7l-8 0c-1,-3 -3,-6 -4,-8 -1,-3 -3,-4 -4,-4l-2 0 0 12 -8 0 0 -29zm8 5l0 7 4 0c1,0 2,-1 2,-1 1,-1 2,-2 2,-3 0,-2 -2,-3 -5,-3l-3 0zm39 -5l13 0c3,0 6,0 7,2 2,1 3,3 3,5 0,1 -1,2 -1,3 -1,1 -2,2 -3,3 2,0 3,1 4,3 1,1 2,2 2,4 0,2 -1,4 -2,6 -2,2 -5,3 -8,3l-15 0 0 -29zm8 5l0 6 3 0c2,0 3,0 3,-1 1,0 1,-1 1,-2 0,-1 0,-2 -1,-2 0,-1 -1,-1 -3,-1l-3 0zm0 12l0 6 4 0c2,0 3,0 4,0 1,-1 1,-2 1,-3 0,-1 0,-2 -1,-3 -1,0 -2,0 -3,0l-5 0zm62 6l0 6 -22 0 0 -29 21 0 0 5 -14 0 0 6 14 0 0 5 -14 0 0 7 15 0zm23 -23l13 0c3,0 5,0 7,2 2,2 3,4 3,6 0,3 -2,6 -5,7 1,1 2,1 2,2 1,1 2,3 3,5 1,2 2,4 3,7l-8 0c-2,-3 -3,-6 -4,-8 -1,-3 -3,-4 -4,-4l-3 0 0 12 -7 0 0 -29zm7 5l0 7 4 0c1,0 2,-1 3,-1 1,-1 1,-2 1,-3 0,-2 -1,-3 -4,-3l-4 0zm60 -4l0 6c-2,-1 -4,-1 -6,-2 -1,0 -2,0 -4,0 -1,0 -2,0 -3,0 -1,1 -1,1 -1,2 0,1 1,2 4,3 4,2 6,3 7,3 3,2 4,4 4,7 0,3 -1,5 -3,7 -2,1 -5,2 -8,2 -3,0 -5,0 -6,-1 -1,0 -3,-1 -5,-2l0 -6c2,1 4,2 6,3 1,1 3,1 4,1 3,0 4,-1 4,-3 0,-1 -1,-2 -3,-3 -4,-2 -7,-3 -8,-3 -2,-2 -3,-4 -3,-7 0,-3 1,-5 3,-7 2,-1 4,-2 8,-2 3,0 6,1 10,2zm53 -1l0 29 -7 0 0 -12 -15 0 0 12 -7 0 0 -29 7 0 0 11 15 0 0 -11 7 0zm57 14c0,4 -2,8 -5,11 -3,3 -7,4 -12,4 -5,0 -9,-1 -13,-4 -2,-3 -4,-7 -4,-11 0,-4 2,-7 4,-10 4,-3 8,-5 13,-5 5,0 9,2 12,5 3,3 5,6 5,10zm-8 0c0,-3 -1,-5 -2,-6 -2,-2 -4,-3 -7,-3 -3,0 -5,1 -7,3 -2,1 -2,3 -2,6 0,3 0,5 2,7 2,1 4,2 7,2 3,0 5,-1 7,-2 1,-2 2,-4 2,-7zm31 -14l13 0c3,0 6,1 7,2 2,2 3,4 3,6 0,3 -1,5 -3,6 -1,2 -4,3 -7,3l-6 0 0 12 -7 0 0 -29zm7 5l0 7 4 0c1,0 2,-1 3,-1 1,-1 1,-2 1,-3 0,-1 0,-2 -1,-2 -1,-1 -2,-1 -4,-1l-3 0z"/>
   <polygon class="fil1" points="1,347 809,347 809,352 1,352 "/>
   <path class="fil1" d="M1 470l362 0c0,1 1,3 2,4l0 0c0,1 0,1 0,1l-364 0 0 -5zm390 0l418 0 0 5 -421 0c1,-1 2,-2 2,-4 0,0 0,0 1,-1z"/>
   <g>
    <g>
     <path class="fil0" d="M392 413c-8,-1 -14,1 -17,3l0 0c0,-1 1,-1 1,-1 1,-1 1,-1 1,-2 1,-1 1,-2 0,-2 0,-1 0,-1 -1,-1 4,-2 8,-3 13,-3 1,0 2,0 3,0 1,0 2,2 3,3 0,2 -2,3 -3,3z"/>
     <path class="fil0" d="M320 418c-1,0 -2,-1 -2,-2l0 -12 39 0 6 8 5 0c1,0 2,0 2,0 -1,1 -2,2 -4,4 0,0 -1,1 -1,2l-1 0 -44 0z"/>
     <path class="fil0" d="M375 410c1,0 2,1 2,2 1,1 1,3 0,4 -2,4 -3,8 -3,13 0,3 0,6 0,9 0,2 0,3 1,5 0,1 0,3 1,4 0,2 1,3 1,4 1,2 1,3 2,4 0,2 1,3 2,5 0,1 1,2 2,3l0 0 0 0 0 0 0 0 0 0 0 0 0 0c1,2 2,4 1,7 -1,1 -2,3 -4,4 -1,1 -3,1 -5,1 -2,-1 -4,-2 -5,-4 -3,-6 -6,-14 -7,-21 -1,-4 -1,-7 -1,-11 0,-2 0,-3 0,-5 1,-9 3,-15 7,-22 0,-1 1,-2 2,-2 1,-1 3,-1 4,0z"/>
    </g>
    <g>
     <path class="fil0" d="M623 368l1 0 8 0 2 0 8 0 2 0 4 0 0 2 -4 5 0 42c0,13 -4,22 -11,29 -8,6 -18,9 -32,9 -14,0 -24,-3 -32,-9 -7,-7 -11,-16 -11,-29l0 -42 -4 -5 0 -2 4 0 2 0 8 0 2 0 7 0 2 0 5 0 0 2 -5 5 0 43c0,6 2,11 6,14 4,4 9,6 16,6 6,0 12,-2 16,-6 4,-4 6,-9 6,-16l0 -41 -5 -5 0 -2 5 0z"/>
     <polygon class="fil0" points="506,375 506,447 510,452 510,454 506,454 504,454 496,454 494,454 488,454 487,454 480,454 480,452 483,449 441,399 441,447 445,452 445,454 441,454 439,454 431,454 429,454 421,454 419,454 415,454 415,452 419,447 419,375 415,370 415,368 419,368 421,368 429,368 431,368 439,368 445,368 445,370 443,373 485,421 485,375 480,370 480,368 485,368 487,368 494,368 496,368 504,368 506,368 510,368 510,370 "/>
     <path class="fil0" d="M219 374l32 71 0 0 6 7 0 2 -2 0 -4 0 -8 0 -4 0 -7 0 -7 0 0 -2 4 -4 -4 -11 -39 0 -4 11 4 4 0 2 -6 0 -8 0 -3 0 -8 0 -4 0 -2 0 0 -2 6 -7 28 -71 -4 -4 0 -2 7 0 7 0 10 0 8 0 6 0 0 2 -4 4zm-1 48l-14 -33 -12 33 26 0z"/>
     <polygon class="fil0" points="68,400 91,373 88,370 88,368 95,368 95,368 102,368 104,368 112,368 114,368 118,368 118,370 114,375 114,447 118,452 118,454 114,454 112,454 104,454 102,454 95,454 93,454 88,454 88,452 93,447 93,401 69,427 66,427 43,401 43,447 47,452 47,454 43,454 41,454 33,454 31,454 23,454 22,454 17,454 17,452 22,447 22,375 17,370 17,368 22,368 23,368 31,368 33,368 40,368 41,368 47,368 47,370 45,373 "/>
     <path class="fil1" d="M360 450c-9,4 -18,5 -28,5 -15,0 -27,-4 -36,-12 -9,-9 -14,-19 -14,-32 0,-12 5,-22 15,-31 9,-9 22,-13 37,-13 10,0 18,2 25,5l4 -4 2 0 0 7 0 7 0 12c-10,-6 -20,-9 -29,-9 -10,0 -17,2 -23,7 -6,5 -9,11 -9,19 0,8 3,14 9,19 6,5 13,8 22,8 4,0 9,-1 13,-2 4,-1 10,-4 17,-8 -3,6 -4,11 -5,18 0,2 0,3 0,4z"/>
     <polygon class="fil0" points="742,400 765,373 763,370 763,368 769,368 770,368 777,368 779,368 787,368 788,368 793,368 793,370 788,375 788,447 793,452 793,454 788,454 787,454 779,454 777,454 769,454 767,454 763,454 763,452 767,447 767,401 744,427 741,427 717,401 717,447 722,452 722,454 717,454 715,454 708,454 706,454 698,454 696,454 692,454 692,452 696,447 696,375 692,370 692,368 696,368 698,368 706,368 708,368 715,368 715,368 722,368 722,370 719,373 "/>
    </g>
   </g>
   <g>
    <polygon class="fil2" points="591,244 529,315 513,297 591,208 "/>
    <polygon class="fil2" points="591,100 420,297 390,297 591,65 622,65 "/>
    <polygon class="fil2" points="312,279 281,315 250,315 312,244 "/>
    <polygon class="fil2" points="405,172 343,244 328,226 390,154 "/>
    <polygon class="fil2" points="343,100 219,244 219,208 328,82 "/>
    <polygon class="fil2" points="250,65 219,100 188,65 219,65 "/>
    <path class="fil2" d="M103 509l0 6c-2,-1 -3,-2 -5,-2 -1,-1 -3,-1 -4,-1 -1,0 -2,0 -3,1 -1,0 -1,1 -1,2 0,1 1,2 4,3 4,1 6,2 7,3 2,2 4,4 4,7 0,3 -1,5 -3,6 -2,2 -5,3 -9,3 -2,0 -4,0 -6,-1 -1,0 -2,-1 -4,-2l0 -6c2,1 4,2 5,3 2,0 3,0 5,0 3,0 4,0 4,-2 0,-1 -1,-3 -4,-4 -4,-1 -6,-2 -7,-3 -2,-1 -4,-4 -4,-7 0,-2 1,-4 3,-6 2,-1 5,-2 8,-2 4,0 7,1 10,2zm54 -2l0 29 -8 0 0 -11 -14 0 0 11 -7 0 0 -29 7 0 0 12 14 0 0 -12 8 0zm41 0l13 29 -8 0 -2 -5 -13 0 -2 5 -8 0 12 -29 8 0zm1 19l-5 -12 -4 12 9 0zm61 -19l-14 30 -3 0 -14 -30 8 0 8 17 7 -17 8 0zm43 24l0 5 -22 0 0 -29 21 0 0 6 -14 0 0 6 14 0 0 5 -14 0 0 7 15 0zm95 -3l0 6c-2,1 -4,2 -5,2 -2,1 -4,1 -6,1 -5,0 -10,-2 -13,-5 -3,-3 -4,-6 -4,-10 0,-4 1,-8 4,-11 4,-3 8,-4 13,-4 5,0 8,1 11,2l0 7c-2,-1 -3,-2 -5,-2 -2,-1 -3,-1 -5,-1 -3,0 -6,1 -8,2 -2,2 -3,4 -3,7 0,2 1,5 3,6 2,2 5,3 8,3 2,0 3,-1 5,-1 1,-1 3,-1 5,-2zm46 -21l7 0 0 17c0,4 -1,8 -4,10 -3,2 -6,3 -11,3 -4,0 -8,-1 -10,-3 -3,-2 -4,-6 -4,-10l0 -17 7 0 0 17c0,2 1,4 2,5 1,1 3,2 5,2 2,0 4,-1 5,-2 2,-1 3,-3 3,-6l0 -16zm58 0l0 6 -11 0 0 23 -7 0 0 -23 -11 0 0 -6 29 0zm93 0l0 6 -10 0 0 23 -8 0 0 -23 -10 0 0 -6 28 0zm22 0l14 0c2,0 5,1 7,3 1,1 2,3 2,6 0,3 -2,5 -5,7 1,0 2,1 3,2 0,1 1,2 2,4 1,3 2,5 3,7l-8 0c-1,-2 -2,-5 -4,-8 -1,-2 -2,-3 -4,-3l-2 0 0 11 -8 0 0 -29zm8 6l0 6 4 0c1,0 2,0 2,-1 1,0 2,-1 2,-2 0,-2 -2,-3 -5,-3l-3 0zm47 -6l0 29 -7 0 0 -29 7 0zm40 11l10 -11 6 0 0 29 -7 0 0 -18 -8 9 -1 0 -8 -9 0 18 -8 0 0 -29 7 0 9 11z"/>
   </g>
   <g>
    <polygon class="fil3" points="591,279 560,315 591,315 622,315 "/>
    <polygon class="fil3" points="591,172 591,136 498,244 498,279 "/>
    <polygon class="fil3" points="374,136 312,208 219,315 188,315 219,279 359,118 "/>
    <polygon class="fil3" points="312,65 219,172 219,136 281,65 "/>
    <polygon class="fil3" points="560,65 374,279 359,262 529,65 "/>
    <path class="fil4" d="M336 516c2,0 4,0 5,1 1,2 2,3 2,5 0,2 -1,3 -2,4 -1,1 -3,2 -5,2 -1,0 -3,-1 -4,-2 -1,-1 -2,-2 -2,-4 0,-2 1,-3 2,-5 1,-1 3,-1 4,-1zm198 0c2,0 3,0 4,1 2,2 2,3 2,5 0,2 0,3 -2,4 -1,1 -2,2 -4,2 -2,0 -3,-1 -4,-2 -1,-1 -2,-2 -2,-4 0,-2 1,-3 2,-5 1,-1 2,-1 4,-1z"/>
   </g>
  </g>
 </g>
</svg>
